<?xml version="1.0" encoding="UTF-8" standalone="no"?>
<!DOCTYPE svg PUBLIC "-//W3C//DTD SVG 20010904//EN"
              "http://www.w3.org/TR/2001/REC-SVG-20010904/DTD/svg10.dtd">

<svg xmlns="http://www.w3.org/2000/svg"
     width="114.83mm" height="98.8694mm"
     viewBox="0 0 518 446">
  <path id="Selection #1"
        fill="none" stroke="black" stroke-width="1"
        d="M 22.00,418.00
           C 22.00,418.00 52.00,418.00 52.00,418.00
             68.89,418.29 67.62,440.23 58.96,444.83
             56.77,445.99 54.40,445.96 52.00,446.00
             52.00,446.00 19.00,446.00 19.00,446.00
             14.70,446.00 7.80,446.73 4.33,444.11
             -0.12,440.75 0.01,435.99 0.00,431.00
             0.00,431.00 0.00,100.00 0.00,100.00
             0.00,100.00 0.00,15.00 0.00,15.00
             0.06,4.23 2.98,0.02 14.00,0.00
             14.00,0.00 52.00,0.00 52.00,0.00
             68.68,0.23 66.88,19.97 60.66,25.57
             57.56,28.36 53.87,27.99 50.00,28.00
             50.00,28.00 22.00,28.00 22.00,28.00
             22.00,28.00 22.00,418.00 22.00,418.00 Z
           M 194.00,27.00
           C 194.00,18.89 191.72,4.39 201.02,0.74
             203.23,-0.13 206.60,0.00 209.00,0.00
             209.00,0.00 309.00,0.00 309.00,0.00
             311.36,0.00 314.79,-0.13 316.96,0.74
             326.04,4.38 324.00,19.09 324.00,27.00
             327.10,27.00 333.26,26.78 336.00,27.57
             348.08,31.03 346.00,45.36 346.00,55.00
             354.72,55.00 364.10,54.09 366.87,65.00
             367.07,67.00 367.00,69.91 366.87,72.00
             366.87,72.00 366.87,179.00 366.87,179.00
             366.98,191.13 363.76,195.85 351.00,196.00
             351.00,196.00 346.00,196.00 346.00,196.00
             346.00,196.00 346.00,253.00 346.00,253.00
             346.00,260.28 347.36,270.28 341.78,275.77
             337.32,280.17 329.85,279.00 324.00,279.00
             324.00,287.70 326.47,302.98 315.99,306.35
             313.12,307.27 306.30,307.00 303.00,307.00
             303.00,315.27 304.55,330.50 294.98,334.26
             292.24,335.34 284.31,335.00 281.00,335.00
             281.00,343.75 283.17,358.33 273.00,362.26
             270.22,363.34 262.34,363.00 259.00,363.00
             259.00,372.31 261.76,387.36 250.00,390.79
             247.72,391.19 240.74,391.00 238.00,390.79
             238.00,398.18 239.19,409.03 234.35,414.78
             230.68,419.14 225.17,418.99 220.00,419.00
             220.00,419.00 195.00,419.00 195.00,419.00
             195.00,419.00 195.00,428.00 195.00,428.00
             194.99,432.71 195.12,436.90 192.30,440.98
             188.49,446.49 180.24,448.16 175.65,442.77
             172.38,438.95 172.02,433.77 172.00,429.00
             171.97,422.22 171.27,403.39 173.26,398.00
             174.35,395.05 176.18,392.64 179.02,391.17
             181.69,389.79 185.06,390.00 188.00,390.00
             188.00,390.00 215.00,390.00 215.00,390.00
             215.00,381.73 213.45,366.50 223.02,362.74
             225.76,361.66 233.69,362.00 237.00,362.00
             237.00,353.25 234.83,338.67 245.00,334.74
             247.78,333.66 255.66,334.00 259.00,334.00
             259.00,325.15 256.36,310.08 267.01,306.65
             269.88,305.73 276.70,306.00 280.00,306.00
             280.00,297.52 278.19,282.75 288.02,278.89
             291.16,277.65 298.37,278.00 302.00,278.00
             302.00,269.03 299.54,254.93 310.00,251.03
             313.51,249.72 319.19,250.00 323.00,250.00
             323.00,250.00 323.00,186.00 323.00,186.00
             323.01,180.49 323.02,174.41 327.22,170.23
             331.64,165.83 339.18,167.00 345.00,167.00
             345.00,167.00 345.00,84.00 345.00,84.00
             341.66,84.00 333.78,84.34 331.00,83.26
             321.02,79.40 323.00,64.61 323.00,56.00
             319.69,56.00 311.76,56.34 309.02,55.26
             299.60,51.56 302.00,36.26 302.00,28.00
             302.00,28.00 216.00,28.00 216.00,28.00
             216.00,34.19 217.13,45.91 213.85,50.96
             210.89,55.52 208.03,55.93 203.00,56.00
             203.00,56.00 173.00,56.00 173.00,56.00
             173.00,56.00 173.00,167.00 173.00,167.00
             176.31,167.00 184.24,166.66 186.98,167.74
             196.75,171.58 195.00,186.61 195.00,195.00
             200.53,195.00 208.43,193.77 212.44,198.23
             217.73,204.08 217.56,217.95 209.96,221.98
             207.85,223.10 205.32,222.98 203.00,223.00
             197.56,223.04 181.07,224.09 177.21,221.26
             170.56,216.39 172.00,203.37 172.00,196.00
             166.63,196.00 158.65,196.60 154.53,192.57
             151.40,189.51 151.06,186.11 151.00,182.00
             151.00,182.00 151.00,140.00 151.00,140.00
             145.15,140.00 137.68,141.17 133.22,136.77
             126.74,130.38 128.99,110.04 129.00,101.00
             129.01,95.48 128.96,90.43 133.22,86.23
             137.68,81.83 145.15,83.00 151.00,83.00
             151.00,83.00 151.00,42.00 151.00,42.00
             151.07,37.00 151.80,32.79 156.10,29.56
             159.73,26.84 164.69,27.01 169.00,27.00
             169.00,27.00 194.00,27.00 194.00,27.00 Z
           M 496.00,28.00
           C 496.00,28.00 466.00,28.00 466.00,28.00
             463.11,27.96 460.60,27.98 458.10,26.26
             451.19,21.52 448.38,0.24 466.00,0.00
             466.00,0.00 499.00,0.00 499.00,0.00
             503.13,0.00 509.46,-0.62 512.90,1.74
             517.97,5.22 517.99,10.53 518.00,16.00
             518.00,16.00 518.00,346.00 518.00,346.00
             518.00,346.00 518.00,431.00 518.00,431.00
             517.95,441.88 515.24,445.98 504.00,446.00
             504.00,446.00 465.00,446.00 465.00,446.00
             449.33,445.71 450.72,425.02 458.18,419.74
             460.86,417.84 463.88,418.02 467.00,418.00
             467.00,418.00 496.00,418.00 496.00,418.00
             496.00,418.00 496.00,28.00 496.00,28.00 Z" />
</svg>
